<?xml version="1.0" encoding="UTF-8"?>
<svg width="800px" height="800px" viewBox="0 0 800 800" version="1.1" xmlns="http://www.w3.org/2000/svg">
    <g stroke="none" stroke-width="1" fill="none" fill-rule="evenodd">
        <path d="M400,50 C400,50 600,100 700,300 C750,400 750,500 700,600 C650,700 550,750 450,750 C350,750 300,700 250,650 C200,600 150,500 200,400 C250,300 350,250 400,250 C450,250 500,300 500,350 C500,400 450,450 400,450 C350,450 300,400 300,350 C300,300 350,250 400,250" 
              fill="#FF6B00" 
              transform="rotate(45, 400, 400)"/>
        <path d="M400,150 C400,150 450,200 450,250 C450,300 400,350 350,350 C300,350 250,300 250,250 C250,200 300,150 350,150 C400,150 400,150 400,150" 
              fill="#000000" 
              transform="rotate(45, 400, 400)"/>
    </g>
</svg> 